# xmcd CD database file
# Copyright (C) 1995-1998 Ti Kan
#
# Track frame offsets:
#	182
#	16400
#	29790
#	45945
#	60137
#	73322
#	94070
#	116542
#	137280
#	154795
#	166207
#	180515
#	192387
#	210435
#
# Disc length: 3074 seconds
#
# Revision: 2
# Processed by: cddbd v1.4PL0 Copyright (c) Steve Scherf et al.
# Submitted via: CDex 1.40Beta1
#
DISCID=b20c000e
DTITLE=John Mayall - Stormy Monday
DYEAR=2001
DGENRE=Blues
TTITLE0=Oh Pretty Woman
TTITLE1=Sitting in the Rain
TTITLE2=Long Gone Midnight
TTITLE3=Mo Reply
TTITLE4=Hartley Quits
TTITLE5=Jenny
TTITLE6=Room to Move
TTITLE7=They Call it Stormy Monday
TTITLE8=Don't Pick a Flower
TTITLE9=Thinking of My Woman
TTITLE10=Don't Waste My Time
TTITLE11=Plan Your Revolution
TTITLE12=Took the Car
TTITLE13=Time's Moving On
EXTD=YEAR: 2001 ID3G:   0
EXTT0=
EXTT1=
EXTT2=
EXTT3=
EXTT4=
EXTT5=
EXTT6=
EXTT7=
EXTT8=
EXTT9=
EXTT10=
EXTT11=
EXTT12=
EXTT13=
PLAYORDER=
